<svg xmlns="http://www.w3.org/2000/svg" width="164.751" height="28.711" viewBox="0 0 164.751 28.711">
  <path id="패스_10081" data-name="패스 10081" d="M-81.687,0h4.395V-8.789h9.2V0h4.424V-21.211h-4.424v8.789h-9.2v-8.789h-4.395Zm21.5,0h4.336V-15.908h-4.336Zm-.205-20.186a2.3,2.3,0,0,0,2.373,2.2,2.276,2.276,0,0,0,2.344-2.2,2.29,2.29,0,0,0-2.344-2.227A2.317,2.317,0,0,0-60.388-20.186ZM-47.761-2.168h-4.16l-1.465,8.35h3.105ZM-26.3-15.146h4.219c-.059-3.75-3.149-6.357-7.852-6.357-4.644,0-8.042,2.563-8.027,6.416,0,3.105,2.2,4.893,5.771,5.771l2.314.557c2.314.571,3.633,1.245,3.633,2.7,0,1.582-1.494,2.666-3.809,2.666-2.344,0-4.043-1.084-4.189-3.223h-4.277c.132,4.556,3.4,6.929,8.525,6.914,5.171.015,8.188-2.476,8.2-6.357-.015-3.53-2.725-5.376-6.357-6.211l-1.9-.469c-1.831-.41-3.413-1.1-3.4-2.637.015-1.406,1.26-2.432,3.486-2.432C-27.81-17.812-26.477-16.831-26.3-15.146Zm15.674-.762h-2.988v-3.809h-4.336v3.809h-2.2v3.252h2.2v8.379c-.029,3.091,2.109,4.5,5.244,4.482A13.767,13.767,0,0,0-10.393.059V-3.369c-.527.044-1.289.088-1.729.088-.879-.029-1.509-.337-1.494-1.611v-7.764h2.988ZM-7.9,0h4.336V-9.053a3.224,3.224,0,0,1,3.4-3.311,7.448,7.448,0,0,1,1.846.234V-16A6.842,6.842,0,0,0,.3-16.143a3.877,3.877,0,0,0-3.838,2.988h-.176v-2.754H-7.9ZM2.585-4.453C2.6-1.3,4.841.308,7.888.293A4.882,4.882,0,0,0,12.546-2.2h.117V0h4.1V-10.723c.015-3.838-3.267-5.391-6.738-5.391-4.219,0-6.621,2.168-6.885,4.922H7.273c.234-1.084,1.157-1.743,2.637-1.758,1.626.015,2.534.776,2.549,2.109v1.289c-.674.029-2.812.132-3.955.205C5.442-9.155,2.6-8,2.585-4.453Zm4.16-.117c0-1.23.952-1.948,2.461-2.08.732-.059,2.593-.161,3.252-.19v1.157A3.078,3.078,0,0,1,9.119-2.7C7.727-2.71,6.746-3.354,6.746-4.57ZM24.412-9.2c0-2.095,1.245-3.311,3.047-3.311s2.856,1.172,2.871,3.135V0h4.307V-10.137c.015-3.706-2.153-5.977-5.479-5.977a4.81,4.81,0,0,0-4.775,2.988h-.176v-2.783H20.076V0h4.336ZM45.154,6.3c4.526,0,7.72-2.065,7.734-6.123V-15.908H48.582v2.666h-.176a4.7,4.7,0,0,0-4.541-2.871c-3.516,0-6.475,2.681-6.475,8.057,0,5.3,2.886,7.837,6.475,7.822a4.6,4.6,0,0,0,4.541-2.578h.205v2.9C48.6,2.3,47.249,3.164,45.242,3.164c-1.729,0-2.93-.571-3.164-1.846H37.8C38.049,4.321,40.759,6.3,45.154,6.3ZM41.843-8c-.015-2.739,1.157-4.658,3.369-4.658,2.183,0,3.4,1.831,3.4,4.658s-1.23,4.5-3.4,4.512C43.015-3.5,41.829-5.244,41.843-8ZM63.464.322C67.39.308,70.027-1.6,70.642-4.541H66.511A3.072,3.072,0,0,1,63.552-2.93c-2.241-.015-3.662-1.494-3.662-3.9H70.759v-1.23c0-5.42-3.3-8.057-7.471-8.057-4.658,0-7.69,3.325-7.676,8.232C55.6-2.842,58.586.308,63.464.322ZM59.89-9.551a3.4,3.4,0,0,1,3.486-3.311,3.161,3.161,0,0,1,3.281,3.311ZM73.484,0H77.82V-9.053a3.224,3.224,0,0,1,3.4-3.311,7.448,7.448,0,0,1,1.846.234V-16a6.842,6.842,0,0,0-1.377-.146,3.877,3.877,0,0,0-3.838,2.988h-.176v-2.754H73.484Z" transform="translate(81.687 22.412)" fill="#fff"/>
</svg>
